<?xml version="1.0" encoding="UTF-8"?>
<svg xmlns="http://www.w3.org/2000/svg" xmlns:xlink="http://www.w3.org/1999/xlink" width="343pt" height="258pt" viewBox="0 0 343 258" version="1.1">
<g id="surface1">
<path style="fill:none;stroke-width:0.3985;stroke-linecap:butt;stroke-linejoin:miter;stroke:rgb(75%,75%,75%);stroke-opacity:1;stroke-miterlimit:10;" d="M 0.00096875 -0.00105656 L 340.161125 -0.00105656 M 0.00096875 14.174441 L 340.161125 14.174441 M 0.00096875 28.346033 L 340.161125 28.346033 M 0.00096875 42.52153 L 340.161125 42.52153 M 0.00096875 56.693122 L 340.161125 56.693122 M 0.00096875 70.86862 L 340.161125 70.86862 M 0.00096875 85.040211 L 340.161125 85.040211 M 0.00096875 99.215709 L 340.161125 99.215709 M 0.00096875 113.387301 L 340.161125 113.387301 M 0.00096875 127.558892 L 340.161125 127.558892 M 0.00096875 141.73439 L 340.161125 141.73439 M 0.00096875 155.905982 L 340.161125 155.905982 M 0.00096875 170.081479 L 340.161125 170.081479 M 0.00096875 184.253071 L 340.161125 184.253071 M 0.00096875 198.428569 L 340.161125 198.428569 M 0.00096875 212.60016 L 340.161125 212.60016 M 0.00096875 226.775658 L 340.161125 226.775658 M 0.00096875 240.947249 L 340.161125 240.947249 M 0.00096875 255.122747 L 340.161125 255.122747 M 0.00096875 -0.00105656 L 0.00096875 255.122747 M 14.172844 -0.00105656 L 14.172844 255.122747 M 28.348625 -0.00105656 L 28.348625 255.122747 M 42.5205 -0.00105656 L 42.5205 255.122747 M 56.692375 -0.00105656 L 56.692375 255.122747 M 70.868156 -0.00105656 L 70.868156 255.122747 M 85.040031 -0.00105656 L 85.040031 255.122747 M 99.211906 -0.00105656 L 99.211906 255.122747 M 113.387687 -0.00105656 L 113.387687 255.122747 M 127.559562 -0.00105656 L 127.559562 255.122747 M 141.735344 -0.00105656 L 141.735344 255.122747 M 155.907219 -0.00105656 L 155.907219 255.122747 M 170.079094 -0.00105656 L 170.079094 255.122747 M 184.254875 -0.00105656 L 184.254875 255.122747 M 198.42675 -0.00105656 L 198.42675 255.122747 M 212.602531 -0.00105656 L 212.602531 255.122747 M 226.774406 -0.00105656 L 226.774406 255.122747 M 240.946281 -0.00105656 L 240.946281 255.122747 M 255.122062 -0.00105656 L 255.122062 255.122747 M 269.293937 -0.00105656 L 269.293937 255.122747 M 283.469719 -0.00105656 L 283.469719 255.122747 M 297.641594 -0.00105656 L 297.641594 255.122747 M 311.813469 -0.00105656 L 311.813469 255.122747 M 325.98925 -0.00105656 L 325.98925 255.122747 M 340.161125 -0.00105656 L 340.161125 255.122747 " transform="matrix(1,0,0,-1.00002,0.792,255.920818)"/>
</g>
</svg>
