<?xml version="1.0" encoding="UTF-8"?>
<svg xmlns="http://www.w3.org/2000/svg" xmlns:xlink="http://www.w3.org/1999/xlink" width="489pt" height="513pt" viewBox="0 0 489 513" version="1.1">
<g id="surface1">
<path style="fill:none;stroke-width:0.3985;stroke-linecap:butt;stroke-linejoin:miter;stroke:rgb(75%,75%,75%);stroke-opacity:1;stroke-miterlimit:10;" d="M 0.000384978 -0.000383835 L 680.323725 -0.000383835 M 0.000384978 14.174122 L 680.323725 14.174122 M 0.000384978 28.348627 L 680.323725 28.348627 M 0.000384978 42.519227 L 680.323725 42.519227 M 0.000384978 56.693732 L 680.323725 56.693732 M 0.000384978 70.868238 L 680.323725 70.868238 M 0.000384978 85.038838 L 680.323725 85.038838 M 0.000384978 99.213343 L 680.323725 99.213343 M 0.000384978 113.387849 L 680.323725 113.387849 M 0.000384978 127.562354 L 680.323725 127.562354 M 0.000384978 141.732954 L 680.323725 141.732954 M 0.000384978 155.907459 L 680.323725 155.907459 M 0.000384978 170.081965 L 680.323725 170.081965 M 0.000384978 184.252565 L 680.323725 184.252565 M 0.000384978 198.42707 L 680.323725 198.42707 M 0.000384978 212.601576 L 680.323725 212.601576 M 0.000384978 226.776081 L 680.323725 226.776081 M 0.000384978 240.946681 L 680.323725 240.946681 M 0.000384978 255.121186 L 680.323725 255.121186 M 0.000384978 269.295692 L 680.323725 269.295692 M 0.000384978 283.466292 L 680.323725 283.466292 M 0.000384978 297.640797 L 680.323725 297.640797 M 0.000384978 311.815303 L 680.323725 311.815303 M 0.000384978 325.989808 L 680.323725 325.989808 M 0.000384978 340.160408 L 680.323725 340.160408 M 0.000384978 354.334913 L 680.323725 354.334913 M 0.000384978 368.509419 L 680.323725 368.509419 M 0.000384978 382.680019 L 680.323725 382.680019 M 0.000384978 396.854524 L 680.323725 396.854524 M 0.000384978 411.02903 L 680.323725 411.02903 M 0.000384978 425.203535 L 680.323725 425.203535 M 0.000384978 439.374135 L 680.323725 439.374135 M 0.000384978 453.548641 L 680.323725 453.548641 M 0.000384978 467.723146 L 680.323725 467.723146 M 0.000384978 481.893746 L 680.323725 481.893746 M 0.000384978 496.068251 L 680.323725 496.068251 M 0.000384978 510.242757 L 680.323725 510.242757 M 0.000384978 -0.000383835 L 0.000384978 510.242757 M 14.171835 -0.000383835 L 14.171835 510.242757 M 28.347191 -0.000383835 L 28.347191 510.242757 M 42.518641 -0.000383835 L 42.518641 510.242757 M 56.693997 -0.000383835 L 56.693997 510.242757 M 70.865447 -0.000383835 L 70.865447 510.242757 M 85.040803 -0.000383835 L 85.040803 510.242757 M 99.212252 -0.000383835 L 99.212252 510.242757 M 113.387608 -0.000383835 L 113.387608 510.242757 M 127.559058 -0.000383835 L 127.559058 510.242757 M 141.734414 -0.000383835 L 141.734414 510.242757 M 155.905864 -0.000383835 L 155.905864 510.242757 M 170.08122 -0.000383835 L 170.08122 510.242757 M 184.25267 -0.000383835 L 184.25267 510.242757 M 198.428026 -0.000383835 L 198.428026 510.242757 M 212.599476 -0.000383835 L 212.599476 510.242757 M 226.774832 -0.000383835 L 226.774832 510.242757 M 240.946282 -0.000383835 L 240.946282 510.242757 M 255.121638 -0.000383835 L 255.121638 510.242757 M 269.293087 -0.000383835 L 269.293087 510.242757 M 283.468443 -0.000383835 L 283.468443 510.242757 M 297.639893 -0.000383835 L 297.639893 510.242757 M 311.815249 -0.000383835 L 311.815249 510.242757 M 325.986699 -0.000383835 L 325.986699 510.242757 M 340.162055 -0.000383835 L 340.162055 510.242757 M 354.333505 -0.000383835 L 354.333505 510.242757 M 368.508861 -0.000383835 L 368.508861 510.242757 M 382.680311 -0.000383835 L 382.680311 510.242757 M 396.855667 -0.000383835 L 396.855667 510.242757 M 411.027117 -0.000383835 L 411.027117 510.242757 M 425.202473 -0.000383835 L 425.202473 510.242757 M 439.373923 -0.000383835 L 439.373923 510.242757 M 453.549279 -0.000383835 L 453.549279 510.242757 M 467.720728 -0.000383835 L 467.720728 510.242757 M 481.896084 -0.000383835 L 481.896084 510.242757 M 496.067534 -0.000383835 L 496.067534 510.242757 M 510.24289 -0.000383835 L 510.24289 510.242757 M 524.41434 -0.000383835 L 524.41434 510.242757 M 538.589696 -0.000383835 L 538.589696 510.242757 M 552.761146 -0.000383835 L 552.761146 510.242757 M 566.936502 -0.000383835 L 566.936502 510.242757 M 581.107952 -0.000383835 L 581.107952 510.242757 M 595.283308 -0.000383835 L 595.283308 510.242757 M 609.454758 -0.000383835 L 609.454758 510.242757 M 623.630114 -0.000383835 L 623.630114 510.242757 M 637.801563 -0.000383835 L 637.801563 510.242757 M 651.976919 -0.000383835 L 651.976919 510.242757 M 666.148369 -0.000383835 L 666.148369 510.242757 M 680.323725 -0.000383835 L 680.323725 510.242757 " transform="matrix(1.00003,0,0,-1.00009,0.792584,511.081647)"/>
</g>
</svg>
