<?xml version="1.0" encoding="UTF-8"?>
<svg xmlns="http://www.w3.org/2000/svg" xmlns:xlink="http://www.w3.org/1999/xlink" width="343pt" height="343pt" viewBox="0 0 343 343" version="1.1">
<g id="surface1">
<path style="fill:none;stroke-width:0.3985;stroke-linecap:butt;stroke-linejoin:miter;stroke:rgb(75%,75%,75%);stroke-opacity:1;stroke-miterlimit:10;" d="M 0.00096875 -0.000357632 L 340.161125 -0.000357632 M 0.00096875 14.174715 L 340.161125 14.174715 M 0.00096875 28.345881 L 340.161125 28.345881 M 0.00096875 42.520954 L 340.161125 42.520954 M 0.00096875 56.69212 L 340.161125 56.69212 M 0.00096875 70.867193 L 340.161125 70.867193 M 0.00096875 85.042265 L 340.161125 85.042265 M 0.00096875 99.213432 L 340.161125 99.213432 M 0.00096875 113.388504 L 340.161125 113.388504 M 0.00096875 127.559671 L 340.161125 127.559671 M 0.00096875 141.734743 L 340.161125 141.734743 M 0.00096875 155.90591 L 340.161125 155.90591 M 0.00096875 170.080982 L 340.161125 170.080982 M 0.00096875 184.256055 L 340.161125 184.256055 M 0.00096875 198.427221 L 340.161125 198.427221 M 0.00096875 212.602293 L 340.161125 212.602293 M 0.00096875 226.77346 L 340.161125 226.77346 M 0.00096875 240.948532 L 340.161125 240.948532 M 0.00096875 255.119699 L 340.161125 255.119699 M 0.00096875 269.294771 L 340.161125 269.294771 M 0.00096875 283.469844 L 340.161125 283.469844 M 0.00096875 297.64101 L 340.161125 297.64101 M 0.00096875 311.816083 L 340.161125 311.816083 M 0.00096875 325.987249 L 340.161125 325.987249 M 0.00096875 340.162322 L 340.161125 340.162322 M 0.00096875 -0.000357632 L 0.00096875 340.162322 M 14.172844 -0.000357632 L 14.172844 340.162322 M 28.348625 -0.000357632 L 28.348625 340.162322 M 42.5205 -0.000357632 L 42.5205 340.162322 M 56.692375 -0.000357632 L 56.692375 340.162322 M 70.868156 -0.000357632 L 70.868156 340.162322 M 85.040031 -0.000357632 L 85.040031 340.162322 M 99.211906 -0.000357632 L 99.211906 340.162322 M 113.387687 -0.000357632 L 113.387687 340.162322 M 127.559562 -0.000357632 L 127.559562 340.162322 M 141.735344 -0.000357632 L 141.735344 340.162322 M 155.907219 -0.000357632 L 155.907219 340.162322 M 170.079094 -0.000357632 L 170.079094 340.162322 M 184.254875 -0.000357632 L 184.254875 340.162322 M 198.42675 -0.000357632 L 198.42675 340.162322 M 212.602531 -0.000357632 L 212.602531 340.162322 M 226.774406 -0.000357632 L 226.774406 340.162322 M 240.946281 -0.000357632 L 240.946281 340.162322 M 255.122062 -0.000357632 L 255.122062 340.162322 M 269.293937 -0.000357632 L 269.293937 340.162322 M 283.469719 -0.000357632 L 283.469719 340.162322 M 297.641594 -0.000357632 L 297.641594 340.162322 M 311.813469 -0.000357632 L 311.813469 340.162322 M 325.98925 -0.000357632 L 325.98925 340.162322 M 340.161125 -0.000357632 L 340.161125 340.162322 " transform="matrix(1,0,0,-1.00005,0.792,340.972299)"/>
</g>
</svg>
