<?xml version="1.0" encoding="UTF-8"?>
<svg xmlns="http://www.w3.org/2000/svg" xmlns:xlink="http://www.w3.org/1999/xlink" width="489pt" height="626pt" viewBox="0 0 489 626" version="1.1">
<g id="surface1">
<path style="fill:none;stroke-width:0.3985;stroke-linecap:butt;stroke-linejoin:miter;stroke:rgb(75%,75%,75%);stroke-opacity:1;stroke-miterlimit:10;" d="M 0.000384978 0.0000075194 L 680.323725 0.0000075194 M 0.000384978 14.174655 L 680.323725 14.174655 M 0.000384978 28.345396 L 680.323725 28.345396 M 0.000384978 42.520043 L 680.323725 42.520043 M 0.000384978 56.694691 L 680.323725 56.694691 M 0.000384978 70.865432 L 680.323725 70.865432 M 0.000384978 85.040079 L 680.323725 85.040079 M 0.000384978 99.214727 L 680.323725 99.214727 M 0.000384978 113.385468 L 680.323725 113.385468 M 0.000384978 127.560115 L 680.323725 127.560115 M 0.000384978 141.734762 L 680.323725 141.734762 M 0.000384978 155.905504 L 680.323725 155.905504 M 0.000384978 170.080151 L 680.323725 170.080151 M 0.000384978 184.254798 L 680.323725 184.254798 M 0.000384978 198.429446 L 680.323725 198.429446 M 0.000384978 212.600187 L 680.323725 212.600187 M 0.000384978 226.774834 L 680.323725 226.774834 M 0.000384978 240.949482 L 680.323725 240.949482 M 0.000384978 255.120223 L 680.323725 255.120223 M 0.000384978 269.29487 L 680.323725 269.29487 M 0.000384978 283.469517 L 680.323725 283.469517 M 0.000384978 297.640259 L 680.323725 297.640259 M 0.000384978 311.814906 L 680.323725 311.814906 M 0.000384978 325.989553 L 680.323725 325.989553 M 0.000384978 340.160295 L 680.323725 340.160295 M 0.000384978 354.334942 L 680.323725 354.334942 M 0.000384978 368.509589 L 680.323725 368.509589 M 0.000384978 382.680331 L 680.323725 382.680331 M 0.000384978 396.854978 L 680.323725 396.854978 M 0.000384978 411.029625 L 680.323725 411.029625 M 0.000384978 425.200366 L 680.323725 425.200366 M 0.000384978 439.375014 L 680.323725 439.375014 M 0.000384978 453.549661 L 680.323725 453.549661 M 0.000384978 467.720402 L 680.323725 467.720402 M 0.000384978 481.89505 L 680.323725 481.89505 M 0.000384978 496.069697 L 680.323725 496.069697 M 0.000384978 510.240438 L 680.323725 510.240438 M 0.000384978 524.415086 L 680.323725 524.415086 M 0.000384978 538.589733 L 680.323725 538.589733 M 0.000384978 552.76438 L 680.323725 552.76438 M 0.000384978 566.935121 L 680.323725 566.935121 M 0.000384978 581.109769 L 680.323725 581.109769 M 0.000384978 595.284416 L 680.323725 595.284416 M 0.000384978 609.455157 L 680.323725 609.455157 M 0.000384978 623.629805 L 680.323725 623.629805 M 0.000384978 0.0000075194 L 0.000384978 623.629805 M 14.171835 0.0000075194 L 14.171835 623.629805 M 28.347191 0.0000075194 L 28.347191 623.629805 M 42.518641 0.0000075194 L 42.518641 623.629805 M 56.693997 0.0000075194 L 56.693997 623.629805 M 70.865447 0.0000075194 L 70.865447 623.629805 M 85.040803 0.0000075194 L 85.040803 623.629805 M 99.212252 0.0000075194 L 99.212252 623.629805 M 113.387608 0.0000075194 L 113.387608 623.629805 M 127.559058 0.0000075194 L 127.559058 623.629805 M 141.734414 0.0000075194 L 141.734414 623.629805 M 155.905864 0.0000075194 L 155.905864 623.629805 M 170.08122 0.0000075194 L 170.08122 623.629805 M 184.25267 0.0000075194 L 184.25267 623.629805 M 198.428026 0.0000075194 L 198.428026 623.629805 M 212.599476 0.0000075194 L 212.599476 623.629805 M 226.774832 0.0000075194 L 226.774832 623.629805 M 240.946282 0.0000075194 L 240.946282 623.629805 M 255.121638 0.0000075194 L 255.121638 623.629805 M 269.293087 0.0000075194 L 269.293087 623.629805 M 283.468443 0.0000075194 L 283.468443 623.629805 M 297.639893 0.0000075194 L 297.639893 623.629805 M 311.815249 0.0000075194 L 311.815249 623.629805 M 325.986699 0.0000075194 L 325.986699 623.629805 M 340.162055 0.0000075194 L 340.162055 623.629805 M 354.333505 0.0000075194 L 354.333505 623.629805 M 368.508861 0.0000075194 L 368.508861 623.629805 M 382.680311 0.0000075194 L 382.680311 623.629805 M 396.855667 0.0000075194 L 396.855667 623.629805 M 411.027117 0.0000075194 L 411.027117 623.629805 M 425.202473 0.0000075194 L 425.202473 623.629805 M 439.373923 0.0000075194 L 439.373923 623.629805 M 453.549279 0.0000075194 L 453.549279 623.629805 M 467.720728 0.0000075194 L 467.720728 623.629805 M 481.896084 0.0000075194 L 481.896084 623.629805 M 496.067534 0.0000075194 L 496.067534 623.629805 M 510.24289 0.0000075194 L 510.24289 623.629805 M 524.41434 0.0000075194 L 524.41434 623.629805 M 538.589696 0.0000075194 L 538.589696 623.629805 M 552.761146 0.0000075194 L 552.761146 623.629805 M 566.936502 0.0000075194 L 566.936502 623.629805 M 581.107952 0.0000075194 L 581.107952 623.629805 M 595.283308 0.0000075194 L 595.283308 623.629805 M 609.454758 0.0000075194 L 609.454758 623.629805 M 623.630114 0.0000075194 L 623.630114 623.629805 M 637.801563 0.0000075194 L 637.801563 623.629805 M 651.976919 0.0000075194 L 651.976919 623.629805 M 666.148369 0.0000075194 L 666.148369 623.629805 M 680.323725 0.0000075194 L 680.323725 623.629805 " transform="matrix(1.00003,0,0,-1.00008,0.792584,624.468758)"/>
</g>
</svg>
