<?xml version="1.0" encoding="UTF-8"?>
<svg xmlns="http://www.w3.org/2000/svg" xmlns:xlink="http://www.w3.org/1999/xlink" width="489pt" height="258pt" viewBox="0 0 489 258" version="1.1">
<g id="surface1">
<path style="fill:none;stroke-width:0.3985;stroke-linecap:butt;stroke-linejoin:miter;stroke:rgb(75%,75%,75%);stroke-opacity:1;stroke-miterlimit:10;" d="M 0.000384978 -0.00105656 L 680.323725 -0.00105656 M 0.000384978 14.174441 L 680.323725 14.174441 M 0.000384978 28.346033 L 680.323725 28.346033 M 0.000384978 42.52153 L 680.323725 42.52153 M 0.000384978 56.693122 L 680.323725 56.693122 M 0.000384978 70.86862 L 680.323725 70.86862 M 0.000384978 85.040211 L 680.323725 85.040211 M 0.000384978 99.215709 L 680.323725 99.215709 M 0.000384978 113.387301 L 680.323725 113.387301 M 0.000384978 127.558892 L 680.323725 127.558892 M 0.000384978 141.73439 L 680.323725 141.73439 M 0.000384978 155.905982 L 680.323725 155.905982 M 0.000384978 170.081479 L 680.323725 170.081479 M 0.000384978 184.253071 L 680.323725 184.253071 M 0.000384978 198.428569 L 680.323725 198.428569 M 0.000384978 212.60016 L 680.323725 212.60016 M 0.000384978 226.775658 L 680.323725 226.775658 M 0.000384978 240.947249 L 680.323725 240.947249 M 0.000384978 255.122747 L 680.323725 255.122747 M 0.000384978 -0.00105656 L 0.000384978 255.122747 M 14.171835 -0.00105656 L 14.171835 255.122747 M 28.347191 -0.00105656 L 28.347191 255.122747 M 42.518641 -0.00105656 L 42.518641 255.122747 M 56.693997 -0.00105656 L 56.693997 255.122747 M 70.865447 -0.00105656 L 70.865447 255.122747 M 85.040803 -0.00105656 L 85.040803 255.122747 M 99.212252 -0.00105656 L 99.212252 255.122747 M 113.387608 -0.00105656 L 113.387608 255.122747 M 127.559058 -0.00105656 L 127.559058 255.122747 M 141.734414 -0.00105656 L 141.734414 255.122747 M 155.905864 -0.00105656 L 155.905864 255.122747 M 170.08122 -0.00105656 L 170.08122 255.122747 M 184.25267 -0.00105656 L 184.25267 255.122747 M 198.428026 -0.00105656 L 198.428026 255.122747 M 212.599476 -0.00105656 L 212.599476 255.122747 M 226.774832 -0.00105656 L 226.774832 255.122747 M 240.946282 -0.00105656 L 240.946282 255.122747 M 255.121638 -0.00105656 L 255.121638 255.122747 M 269.293087 -0.00105656 L 269.293087 255.122747 M 283.468443 -0.00105656 L 283.468443 255.122747 M 297.639893 -0.00105656 L 297.639893 255.122747 M 311.815249 -0.00105656 L 311.815249 255.122747 M 325.986699 -0.00105656 L 325.986699 255.122747 M 340.162055 -0.00105656 L 340.162055 255.122747 M 354.333505 -0.00105656 L 354.333505 255.122747 M 368.508861 -0.00105656 L 368.508861 255.122747 M 382.680311 -0.00105656 L 382.680311 255.122747 M 396.855667 -0.00105656 L 396.855667 255.122747 M 411.027117 -0.00105656 L 411.027117 255.122747 M 425.202473 -0.00105656 L 425.202473 255.122747 M 439.373923 -0.00105656 L 439.373923 255.122747 M 453.549279 -0.00105656 L 453.549279 255.122747 M 467.720728 -0.00105656 L 467.720728 255.122747 M 481.896084 -0.00105656 L 481.896084 255.122747 M 496.067534 -0.00105656 L 496.067534 255.122747 M 510.24289 -0.00105656 L 510.24289 255.122747 M 524.41434 -0.00105656 L 524.41434 255.122747 M 538.589696 -0.00105656 L 538.589696 255.122747 M 552.761146 -0.00105656 L 552.761146 255.122747 M 566.936502 -0.00105656 L 566.936502 255.122747 M 581.107952 -0.00105656 L 581.107952 255.122747 M 595.283308 -0.00105656 L 595.283308 255.122747 M 609.454758 -0.00105656 L 609.454758 255.122747 M 623.630114 -0.00105656 L 623.630114 255.122747 M 637.801563 -0.00105656 L 637.801563 255.122747 M 651.976919 -0.00105656 L 651.976919 255.122747 M 666.148369 -0.00105656 L 666.148369 255.122747 M 680.323725 -0.00105656 L 680.323725 255.122747 " transform="matrix(1.00003,0,0,-1.00002,0.792584,255.920818)"/>
</g>
</svg>
