<?xml version="1.0" encoding="UTF-8"?>
<svg xmlns="http://www.w3.org/2000/svg" xmlns:xlink="http://www.w3.org/1999/xlink" width="489pt" height="173pt" viewBox="0 0 489 173" version="1.1">
<g id="surface1">
<path style="fill:none;stroke-width:0.3985;stroke-linecap:butt;stroke-linejoin:miter;stroke:rgb(75%,75%,75%);stroke-opacity:1;stroke-miterlimit:10;" d="M 0.000384978 -0.000136006 L 680.323725 -0.000136006 M 0.000384978 14.17522 L 680.323725 14.17522 M 0.000384978 28.34667 L 680.323725 28.34667 M 0.000384978 42.522026 L 680.323725 42.522026 M 0.000384978 56.693476 L 680.323725 56.693476 M 0.000384978 70.868832 L 680.323725 70.868832 M 0.000384978 85.040282 L 680.323725 85.040282 M 0.000384978 99.215638 L 680.323725 99.215638 M 0.000384978 113.387087 L 680.323725 113.387087 M 0.000384978 127.562443 L 680.323725 127.562443 M 0.000384978 141.733893 L 680.323725 141.733893 M 0.000384978 155.909249 L 680.323725 155.909249 M 0.000384978 170.080699 L 680.323725 170.080699 M 0.000384978 -0.000136006 L 0.000384978 170.080699 M 14.171835 -0.000136006 L 14.171835 170.080699 M 28.347191 -0.000136006 L 28.347191 170.080699 M 42.518641 -0.000136006 L 42.518641 170.080699 M 56.693997 -0.000136006 L 56.693997 170.080699 M 70.865447 -0.000136006 L 70.865447 170.080699 M 85.040803 -0.000136006 L 85.040803 170.080699 M 99.212252 -0.000136006 L 99.212252 170.080699 M 113.387608 -0.000136006 L 113.387608 170.080699 M 127.559058 -0.000136006 L 127.559058 170.080699 M 141.734414 -0.000136006 L 141.734414 170.080699 M 155.905864 -0.000136006 L 155.905864 170.080699 M 170.08122 -0.000136006 L 170.08122 170.080699 M 184.25267 -0.000136006 L 184.25267 170.080699 M 198.428026 -0.000136006 L 198.428026 170.080699 M 212.599476 -0.000136006 L 212.599476 170.080699 M 226.774832 -0.000136006 L 226.774832 170.080699 M 240.946282 -0.000136006 L 240.946282 170.080699 M 255.121638 -0.000136006 L 255.121638 170.080699 M 269.293087 -0.000136006 L 269.293087 170.080699 M 283.468443 -0.000136006 L 283.468443 170.080699 M 297.639893 -0.000136006 L 297.639893 170.080699 M 311.815249 -0.000136006 L 311.815249 170.080699 M 325.986699 -0.000136006 L 325.986699 170.080699 M 340.162055 -0.000136006 L 340.162055 170.080699 M 354.333505 -0.000136006 L 354.333505 170.080699 M 368.508861 -0.000136006 L 368.508861 170.080699 M 382.680311 -0.000136006 L 382.680311 170.080699 M 396.855667 -0.000136006 L 396.855667 170.080699 M 411.027117 -0.000136006 L 411.027117 170.080699 M 425.202473 -0.000136006 L 425.202473 170.080699 M 439.373923 -0.000136006 L 439.373923 170.080699 M 453.549279 -0.000136006 L 453.549279 170.080699 M 467.720728 -0.000136006 L 467.720728 170.080699 M 481.896084 -0.000136006 L 481.896084 170.080699 M 496.067534 -0.000136006 L 496.067534 170.080699 M 510.24289 -0.000136006 L 510.24289 170.080699 M 524.41434 -0.000136006 L 524.41434 170.080699 M 538.589696 -0.000136006 L 538.589696 170.080699 M 552.761146 -0.000136006 L 552.761146 170.080699 M 566.936502 -0.000136006 L 566.936502 170.080699 M 581.107952 -0.000136006 L 581.107952 170.080699 M 595.283308 -0.000136006 L 595.283308 170.080699 M 609.454758 -0.000136006 L 609.454758 170.080699 M 623.630114 -0.000136006 L 623.630114 170.080699 M 637.801563 -0.000136006 L 637.801563 170.080699 M 651.976919 -0.000136006 L 651.976919 170.080699 M 666.148369 -0.000136006 L 666.148369 170.080699 M 680.323725 -0.000136006 L 680.323725 170.080699 " transform="matrix(1.00003,0,0,-1.00003,0.792584,170.882676)"/>
</g>
</svg>
