<?xml version="1.0" encoding="UTF-8"?>
<svg xmlns="http://www.w3.org/2000/svg" xmlns:xlink="http://www.w3.org/1999/xlink" width="489pt" height="343pt" viewBox="0 0 489 343" version="1.1">
<g id="surface1">
<path style="fill:none;stroke-width:0.3985;stroke-linecap:butt;stroke-linejoin:miter;stroke:rgb(75%,75%,75%);stroke-opacity:1;stroke-miterlimit:10;" d="M 0.000384978 -0.000357632 L 680.323725 -0.000357632 M 0.000384978 14.174715 L 680.323725 14.174715 M 0.000384978 28.345881 L 680.323725 28.345881 M 0.000384978 42.520954 L 680.323725 42.520954 M 0.000384978 56.69212 L 680.323725 56.69212 M 0.000384978 70.867193 L 680.323725 70.867193 M 0.000384978 85.042265 L 680.323725 85.042265 M 0.000384978 99.213432 L 680.323725 99.213432 M 0.000384978 113.388504 L 680.323725 113.388504 M 0.000384978 127.559671 L 680.323725 127.559671 M 0.000384978 141.734743 L 680.323725 141.734743 M 0.000384978 155.90591 L 680.323725 155.90591 M 0.000384978 170.080982 L 680.323725 170.080982 M 0.000384978 184.256055 L 680.323725 184.256055 M 0.000384978 198.427221 L 680.323725 198.427221 M 0.000384978 212.602293 L 680.323725 212.602293 M 0.000384978 226.77346 L 680.323725 226.77346 M 0.000384978 240.948532 L 680.323725 240.948532 M 0.000384978 255.119699 L 680.323725 255.119699 M 0.000384978 269.294771 L 680.323725 269.294771 M 0.000384978 283.469844 L 680.323725 283.469844 M 0.000384978 297.64101 L 680.323725 297.64101 M 0.000384978 311.816083 L 680.323725 311.816083 M 0.000384978 325.987249 L 680.323725 325.987249 M 0.000384978 340.162322 L 680.323725 340.162322 M 0.000384978 -0.000357632 L 0.000384978 340.162322 M 14.171835 -0.000357632 L 14.171835 340.162322 M 28.347191 -0.000357632 L 28.347191 340.162322 M 42.518641 -0.000357632 L 42.518641 340.162322 M 56.693997 -0.000357632 L 56.693997 340.162322 M 70.865447 -0.000357632 L 70.865447 340.162322 M 85.040803 -0.000357632 L 85.040803 340.162322 M 99.212252 -0.000357632 L 99.212252 340.162322 M 113.387608 -0.000357632 L 113.387608 340.162322 M 127.559058 -0.000357632 L 127.559058 340.162322 M 141.734414 -0.000357632 L 141.734414 340.162322 M 155.905864 -0.000357632 L 155.905864 340.162322 M 170.08122 -0.000357632 L 170.08122 340.162322 M 184.25267 -0.000357632 L 184.25267 340.162322 M 198.428026 -0.000357632 L 198.428026 340.162322 M 212.599476 -0.000357632 L 212.599476 340.162322 M 226.774832 -0.000357632 L 226.774832 340.162322 M 240.946282 -0.000357632 L 240.946282 340.162322 M 255.121638 -0.000357632 L 255.121638 340.162322 M 269.293087 -0.000357632 L 269.293087 340.162322 M 283.468443 -0.000357632 L 283.468443 340.162322 M 297.639893 -0.000357632 L 297.639893 340.162322 M 311.815249 -0.000357632 L 311.815249 340.162322 M 325.986699 -0.000357632 L 325.986699 340.162322 M 340.162055 -0.000357632 L 340.162055 340.162322 M 354.333505 -0.000357632 L 354.333505 340.162322 M 368.508861 -0.000357632 L 368.508861 340.162322 M 382.680311 -0.000357632 L 382.680311 340.162322 M 396.855667 -0.000357632 L 396.855667 340.162322 M 411.027117 -0.000357632 L 411.027117 340.162322 M 425.202473 -0.000357632 L 425.202473 340.162322 M 439.373923 -0.000357632 L 439.373923 340.162322 M 453.549279 -0.000357632 L 453.549279 340.162322 M 467.720728 -0.000357632 L 467.720728 340.162322 M 481.896084 -0.000357632 L 481.896084 340.162322 M 496.067534 -0.000357632 L 496.067534 340.162322 M 510.24289 -0.000357632 L 510.24289 340.162322 M 524.41434 -0.000357632 L 524.41434 340.162322 M 538.589696 -0.000357632 L 538.589696 340.162322 M 552.761146 -0.000357632 L 552.761146 340.162322 M 566.936502 -0.000357632 L 566.936502 340.162322 M 581.107952 -0.000357632 L 581.107952 340.162322 M 595.283308 -0.000357632 L 595.283308 340.162322 M 609.454758 -0.000357632 L 609.454758 340.162322 M 623.630114 -0.000357632 L 623.630114 340.162322 M 637.801563 -0.000357632 L 637.801563 340.162322 M 651.976919 -0.000357632 L 651.976919 340.162322 M 666.148369 -0.000357632 L 666.148369 340.162322 M 680.323725 -0.000357632 L 680.323725 340.162322 " transform="matrix(1.00003,0,0,-1.00005,0.792584,340.972299)"/>
</g>
</svg>
